<svg viewBox="0 0 14 14" xmlns="http://www.w3.org/2000/svg"><path d="m11.2 4.6v-2.4055229c0-.6555497-.535663-1.1944771-1.196436-1.1944771h-7.2071278c-.6597279 0-1.1964362.5347856-1.1964362 1.1944771v9.6110459c0 .65555.5356627 1.194477 1.1964362 1.194477h5.1053458-2.101782v-2.4h-3v-8.4h7.2v1.8h1.2v.6c.662845 0 1.2.538236 1.2 1.203515v5.99297c0 .664683-.53246 1.203515-1.199769 1.203515h-3.600462c-.6626141 0-1.199769-.538236-1.199769-1.203515v-5.99297c0-.664683.53246-1.203515 1.199769-1.203515zm-3.6 1.2h3.6v4.8h-3.6zm1.8 6.6c.331371 0 .6-.268629.6-.6s-.268629-.6-.6-.6-.6.268629-.6.6.268629.6.6.6z" fill-rule="evenodd"/></svg>